HIERARCHY
ROOT Hips
{
	OFFSET 0.00000 0.00000 0.00000
	CHANNELS 6 Xposition Yposition Zposition Zrotation Yrotation Xrotation 
	JOINT LHipJoint
	{
		OFFSET 0 0 0
		CHANNELS 3 Zrotation Yrotation Xrotation
		JOINT LeftUpLeg
		{
			OFFSET 1.64549 -1.70879 0.84566
			CHANNELS 3 Zrotation Yrotation Xrotation
			JOINT LeftLeg
			{
				OFFSET 2.24963 -6.18082 0.00000
				CHANNELS 3 Zrotation Yrotation Xrotation
				JOINT LeftFoot
				{
					OFFSET 2.71775 -7.46697 0.00000
					CHANNELS 3 Zrotation Yrotation Xrotation
					JOINT LeftToeBase
					{
						OFFSET 0.18768 -0.51564 2.24737
						CHANNELS 3 Zrotation Yrotation Xrotation
						End Site
						{
							OFFSET 0.00000 -0.00000 1.15935
						}
					}
				}
			}
		}
	}
	JOINT RHipJoint
	{
		OFFSET 0 0 0
		CHANNELS 3 Zrotation Yrotation Xrotation
		JOINT RightUpLeg
		{
			OFFSET -1.58830 -1.70879 0.84566
			CHANNELS 3 Zrotation Yrotation Xrotation
			JOINT RightLeg
			{
				OFFSET -2.25006 -6.18201 0.00000
				CHANNELS 3 Zrotation Yrotation Xrotation
				JOINT RightFoot
				{
					OFFSET -2.72829 -7.49593 0.00000
					CHANNELS 3 Zrotation Yrotation Xrotation
					JOINT RightToeBase
					{
						OFFSET -0.21541 -0.59185 2.10643
						CHANNELS 3 Zrotation Yrotation Xrotation
						End Site
						{
							OFFSET -0.00000 -0.00000 1.09838
						}
					}
				}
			}
		}
	}
	JOINT LowerBack
	{
		OFFSET 0 0 0
		CHANNELS 3 Zrotation Yrotation Xrotation
		JOINT Spine
		{
			OFFSET 0.03142 2.10496 -0.11038
			CHANNELS 3 Zrotation Yrotation Xrotation
			JOINT Spine1
			{
				OFFSET -0.01863 2.10897 -0.06956
				CHANNELS 3 Zrotation Yrotation Xrotation
				JOINT Neck
				{
					OFFSET 0 0 0
					CHANNELS 3 Zrotation Yrotation Xrotation
					JOINT Neck1
					{
						OFFSET -0.02267 1.73238 0.00451
						CHANNELS 3 Zrotation Yrotation Xrotation
						JOINT Head
						{
							OFFSET -0.05808 1.54724 -0.61749
							CHANNELS 3 Zrotation Yrotation Xrotation
							End Site
							{
								OFFSET -0.01396 1.71468 -0.21082
							}
						}
					}
				}
				JOINT LeftShoulder
				{
					OFFSET 0 0 0
					CHANNELS 3 Zrotation Yrotation Xrotation
					JOINT LeftArm
					{
						OFFSET 3.44898 0.50298 0.21920
						CHANNELS 3 Zrotation Yrotation Xrotation
						JOINT LeftForeArm
						{
							OFFSET 5.41917 -0.00000 -0.00000
							CHANNELS 3 Zrotation Yrotation Xrotation
							JOINT LeftHand
							{
								OFFSET 2.44373 -0.00000 0.00000
								CHANNELS 3 Zrotation Yrotation Xrotation
								JOINT LeftFingerBase
								{
									OFFSET 0 0 0
									CHANNELS 3 Zrotation Yrotation Xrotation
									JOINT LeftHandIndex1
									{
										OFFSET 0.72750 -0.00000 0.00000
										CHANNELS 3 Zrotation Yrotation Xrotation
										End Site
										{
											OFFSET 0.58653 -0.00000 0.00000
										}
									}
								}
								JOINT LThumb
								{
									OFFSET 0 0 0
									CHANNELS 3 Zrotation Yrotation Xrotation
									End Site
									{
										OFFSET 0.59549 -0.00000 0.59549
									}
								}
							}
						}
					}
				}
				JOINT RightShoulder
				{
					OFFSET 0 0 0
					CHANNELS 3 Zrotation Yrotation Xrotation
					JOINT RightArm
					{
						OFFSET -3.23015 0.55830 0.31051
						CHANNELS 3 Zrotation Yrotation Xrotation
						JOINT RightForeArm
						{
							OFFSET -5.58976 -0.00010 0.00014
							CHANNELS 3 Zrotation Yrotation Xrotation
							JOINT RightHand
							{
								OFFSET -2.48060 -0.00000 0.00000
								CHANNELS 3 Zrotation Yrotation Xrotation
								JOINT RightFingerBase
								{
									OFFSET 0 0 0
									CHANNELS 3 Zrotation Yrotation Xrotation
									JOINT RightHandIndex1
									{
										OFFSET -0.81601 -0.00000 0.00000
										CHANNELS 3 Zrotation Yrotation Xrotation
										End Site
										{
											OFFSET -0.65789 -0.00000 0.00000
										}
									}
								}
								JOINT RThumb
								{
									OFFSET 0 0 0
									CHANNELS 3 Zrotation Yrotation Xrotation
									End Site
									{
										OFFSET -0.66793 -0.00000 0.66793
									}
								}
							}
						}
					}
				}
			}
		}
	}
}
MOTION
Frames: 12
Frame Time: .0083333
0.637 16.3739 34.5317 0 0 0 0 0 0 -21 0 0 0 0 0 0 0 0 0 0 0 0 0 0 21 0 0 0 0 0 0 0 0 0 0 0 0 0 0 0 0 0 0 0 0 0 0 -16 0 0 21 0 0 11 0 0 0 -8 0 0 0 0 0 0 0 0 0 0 0 0 0 0 0 0 0 0 0 0 8 0 0 0 0 0 0 0 0 0 0 0 0 0 0 0 0 0
0.6370 16.3739 34.5317 -179.1270 6.2718 -157.5290 0.0000 0.0000 0.0000 -26.9962 -5.1288 -42.3452 6.2167 14.6351 45.8453 5.3816 6.4777 -46.3103 0.0608 1.5915 4.3781 0.0000 0.0000 0.0000 16.0255 4.9940 -52.0670 -16.1153 -19.6343 78.5749 0.7356 -17.6177 -16.5046 -0.8950 -6.0297 16.8705 -2.9628 -0.6234 -5.1733 0.3395 -0.3124 -5.8106 1.9921 0.1478 -3.0714 2.1267 -1.1501 -14.4118 -2.1474 2.3127 37.1053 -0.5516 2.2243 15.5026 0.0000 -0.0000 0.0000 -74.0140 0.1271 73.8134 57.8718 -55.7156 -32.5764 -0.0000 0.0000 -27.2529 -22.0577 16.4568 -6.5483 -7.1250 0.0000 -0.0000 -42.8815 42.0968 3.8966 0.0000 -0.0000 0.0000 74.5303 -9.3973 57.9422 -73.6838 58.9698 -45.9186 0.0000 -0.0000 -39.5770 5.2303 6.0831 0.5558 7.1250 -0.0000 -0.0000 23.1419 -23.8188 12.8694
0.6340 16.3649 34.5000 -178.9370 6.3636 -157.4420 0.0000 0.0000 0.0000 -26.7403 -5.4558 -42.2430 6.2508 14.6671 45.9803 5.5834 6.0821 -46.9688 0.0914 1.9501 5.3676 0.0000 0.0000 0.0000 15.6108 5.9499 -52.7914 -15.7166 -19.5543 77.3863 0.6264 -17.3967 -17.7087 -0.9408 -6.1779 17.3016 -2.6596 -0.7041 -5.1581 0.4492 -0.4247 -5.8506 1.9326 0.0850 -3.1157 2.0403 -0.9330 -14.3575 -2.3320 2.6285 36.7254 -0.5705 2.2883 15.3164 -0.0000 -0.0000 0.0000 -74.3506 -0.3333 74.6542 55.9952 -55.1447 -31.0311 -0.0000 0.0000 -25.8087 -20.7313 15.6923 -5.8451 -7.1250 0.0000 -0.0000 -41.5220 41.6532 4.2866 -0.0000 -0.0000 0.0000 74.6271 -9.0628 57.7271 -72.7372 58.8435 -45.1080 0.0000 -0.0000 -39.4709 7.6002 2.4444 0.3261 7.1250 -0.0000 -0.0000 25.5103 -27.0790 12.2762
0.6356 16.3587 34.4759 -178.7370 6.3836 -157.2710 0.0000 0.0000 0.0000 -26.4540 -5.6861 -42.3028 6.2798 14.6941 46.0947 5.6571 5.9736 -47.2213 0.1025 2.0645 5.6838 0.0000 0.0000 0.0000 15.2197 6.9810 -53.6174 -15.2606 -19.4527 76.0204 0.6868 -18.0054 -18.1350 -1.4226 -7.5426 21.3330 -2.4533 -0.8222 -5.1790 0.6099 -0.5953 -5.7613 1.9786 -0.0123 -3.0020 1.9009 -0.6784 -14.6696 -2.4222 2.9100 36.3149 -0.5473 2.3202 15.2011 0.0000 0.0000 0.0000 -74.7217 -1.1752 75.1450 54.0844 -54.5156 -29.4690 -0.0000 0.0000 -24.6978 -20.0416 15.6996 -5.6375 -7.1250 0.0000 -0.0000 -41.0391 41.7486 4.0885 0.0000 0.0000 0.0000 74.7778 -8.1985 57.5231 -71.0792 58.6031 -43.6909 0.0000 -0.0000 -39.4663 7.8317 2.0617 0.2835 7.1250 -0.0000 -0.0000 25.7581 -27.4171 12.1895
0.6407 16.3554 34.4568 -178.7090 6.1668 -157.3480 0.0000 0.0000 0.0000 -26.3363 -5.8246 -42.1096 6.2981 14.7111 46.1665 5.6628 6.0181 -47.2599 0.0829 1.8577 5.1126 0.0000 0.0000 0.0000 14.8408 7.6806 -54.3427 -14.7794 -19.3336 74.5714 1.0469 -19.8069 -16.9096 -1.6578 -8.1137 23.0600 -2.3875 -1.0159 -4.7671 0.6939 -0.8858 -5.6746 2.0254 -0.1669 -3.1264 1.8834 -0.4526 -14.9228 -2.4909 3.1146 35.9195 -0.5487 2.3455 15.0787 0.0000 -0.0000 0.0000 -74.9832 -1.9569 75.5484 52.1008 -53.8084 -27.8609 -0.0000 0.0000 -23.0372 -20.3839 15.6339 -5.7183 -7.1250 0.0000 -0.0000 -41.2451 41.6507 4.2463 0.0000 -0.0000 0.0000 75.0238 -7.2971 57.4144 -69.0318 58.2717 -41.9463 0.0000 -0.0000 -39.4673 5.5763 6.3827 0.6219 7.1250 -0.0000 -0.0000 23.3233 -23.5348 13.1585
0.6408 16.3468 34.4180 -178.6460 6.3617 -157.4270 0.0000 0.0000 0.0000 -26.2953 -5.8846 -41.8599 6.3049 14.7174 46.1933 5.7806 5.8421 -47.6603 0.1018 2.0571 5.6636 0.0000 0.0000 0.0000 14.4640 8.5110 -55.0081 -14.2423 -19.1859 72.9431 0.4865 -17.2660 -19.3524 -0.0016 -0.2548 0.7000 -2.3446 -1.0717 -4.6742 0.7273 -0.9867 -5.4910 2.0342 -0.2332 -2.9819 1.8554 -0.2402 -15.3426 -2.5207 3.2999 35.6367 -0.5317 2.3674 15.0486 -0.0000 0.0000 0.0000 -75.1948 -2.8157 76.0492 50.0488 -53.0152 -26.2132 -0.0000 0.0000 -21.1664 -20.8958 15.3951 -5.7873 -7.1250 0.0000 -0.0000 -41.4727 41.3896 4.6240 -0.0000 0.0000 0.0000 75.3257 -6.3115 57.1484 -66.7090 57.8476 -39.9751 0.0000 -0.0000 -39.4435 8.2899 1.7062 0.2486 7.1250 -0.0000 -0.0000 26.1590 -27.7194 12.2108
0.6449 16.3385 34.3879 -178.6700 6.3327 -157.4470 0.0000 0.0000 0.0000 -26.3042 -5.9411 -41.7223 6.3042 14.7168 46.1906 5.7691 6.0641 -47.6947 0.0833 1.8616 5.1234 0.0000 0.0000 0.0000 13.9966 9.2307 -55.6217 -13.6700 -19.0109 71.1939 0.5757 -18.0479 -19.7105 -0.0112 0.6820 -1.8741 -2.3456 -1.1475 -4.4398 0.7338 -1.0918 -5.5661 2.0430 -0.2809 -3.1857 1.9366 -0.1188 -15.3036 -2.5911 3.4101 35.3828 -0.5625 2.3982 14.9255 -0.0000 -0.0000 0.0000 -75.4150 -3.3552 76.7392 47.9073 -52.1158 -24.5126 -0.0000 0.0000 -19.3183 -21.4560 14.9020 -5.7714 -7.1250 0.0000 -0.0000 -41.5906 40.9141 5.2726 -0.0000 -0.0000 0.0000 75.6326 -5.9778 56.7067 -64.6042 57.4170 -38.1973 0.0000 -0.0000 -39.4040 7.7635 2.9615 0.4036 7.1250 -0.0000 -0.0000 25.5070 -26.6015 12.5983
0.6474 16.3468 34.3510 -178.3870 6.4539 -157.4220 0.0000 0.0000 0.0000 -25.9889 -6.0435 -41.4747 6.2815 14.6957 46.1011 5.8344 6.2428 -48.0138 0.0817 1.8437 5.0739 0.0000 0.0000 0.0000 13.6866 10.2327 -56.0377 -13.0999 -18.8180 69.4356 0.2087 -16.7606 -21.6995 -0.0173 -0.8492 2.3339 -2.1229 -1.1697 -4.2778 0.8467 -1.1167 -5.7011 2.0376 -0.2899 -3.4176 1.9986 0.0242 -15.0274 -2.7456 3.6013 35.0389 -0.6129 2.4570 14.7114 -0.0000 -0.0000 0.0000 -75.7223 -3.7455 77.4776 45.8362 -51.1716 -22.8883 -0.0000 0.0000 -17.5777 -21.6340 14.8243 -5.7943 -7.1250 0.0000 -0.0000 -41.6704 40.8273 5.4037 -0.0000 -0.0000 0.0000 75.8435 -5.7989 56.3091 -62.4799 56.9353 -36.4121 0.0000 -0.0000 -39.1766 6.1705 6.5568 0.7073 7.1250 -0.0000 -0.0000 23.6936 -23.3606 13.5136
0.6545 16.3449 34.3180 -178.1890 6.3680 -157.4270 0.0000 0.0000 0.0000 -25.7237 -6.1151 -41.2295 6.2481 14.6645 45.9694 5.8722 6.2989 -48.1810 0.0952 1.9898 5.4775 0.0000 0.0000 0.0000 13.5722 10.9996 -56.5387 -12.4312 -18.5670 67.3491 0.4429 -17.9084 -21.0349 -0.0348 1.2040 -3.3103 -1.9657 -1.3046 -3.9716 0.9810 -1.3001 -5.7913 2.0919 -0.3792 -3.6747 1.9673 0.1987 -15.0189 -2.8333 3.8194 34.7517 -0.6132 2.5127 14.5858 0.0000 0.0000 0.0000 -75.9587 -4.2040 78.3715 43.6603 -50.0950 -21.2060 -0.0000 0.0000 -14.8932 -21.0628 14.5536 -5.5276 -7.1250 0.0000 -0.0000 -41.1308 40.6797 5.4886 0.0000 0.0000 0.0000 76.0176 -5.4337 56.0239 -60.1191 56.3416 -34.4402 0.0000 -0.0000 -39.2749 5.8425 7.8913 0.8049 7.1250 -0.0000 -0.0000 23.2374 -22.1370 13.9267
0.6632 16.3590 34.2888 -178.1200 6.2545 -157.4200 0.0000 0.0000 0.0000 -25.6106 -6.1448 -40.9183 6.1690 14.5902 45.6563 5.9112 6.2782 -48.3245 0.1036 2.0752 5.7135 0.0000 0.0000 0.0000 12.9949 11.9313 -56.8009 -11.8420 -18.3230 65.4870 -0.1947 -15.2584 -23.5534 -0.0818 -1.8452 5.0781 -1.9669 -1.4739 -3.5877 1.1450 -1.5230 -5.9307 2.2700 -0.4777 -4.0214 1.8854 0.3215 -14.9782 -2.9731 3.9921 34.4459 -0.6338 2.5368 14.4445 0.0000 0.0000 0.0000 -76.4058 -4.7797 78.4926 41.3786 -48.8658 -19.4713 -0.0000 0.0000 -13.1385 -22.3274 14.2975 -5.7913 -7.1250 0.0000 -0.0000 -41.8548 40.3054 6.1434 0.0000 0.0000 0.0000 76.0838 -5.0713 55.6971 -57.5643 55.6252 -32.3224 0.0000 -0.0000 -39.4111 6.2813 7.9432 0.8714 7.1250 -0.0000 -0.0000 23.5212 -22.0806 14.1633
0.6709 16.3846 34.2546 -178.0680 5.9220 -157.4270 0.0000 0.0000 0.0000 -25.5349 -6.0180 -40.5523 6.0619 14.4881 45.2297 5.8499 6.3091 -48.0980 0.0857 1.8885 5.1976 0.0000 0.0000 0.0000 12.6680 12.4434 -57.2284 -11.2094 -18.0360 63.4596 -0.4616 -14.1767 -24.6178 -0.2218 -3.0315 8.3665 -1.9802 -1.6229 -3.2176 1.2980 -1.7303 -5.9509 2.4448 -0.5762 -4.2356 1.9809 0.3404 -15.4802 -3.1855 3.9553 34.3247 -0.7446 2.4677 14.5099 0.0000 0.0000 0.0000 -76.7854 -5.8000 79.1687 38.9035 -47.4067 -17.6277 -0.0000 0.0000 -11.1620 -21.3028 13.6963 -5.2751 -7.1250 0.0000 -0.0000 -40.8411 39.9443 6.3828 0.0000 0.0000 0.0000 76.1183 -4.7143 55.0894 -55.5428 55.0003 -30.6602 0.0000 -0.0000 -39.3834 6.4619 7.5612 0.8539 7.1250 -0.0000 -0.0000 23.7084 -22.4289 14.0881
0.6769 16.4138 34.2157 -178.1020 5.5361 -157.4760 0.0000 0.0000 0.0000 -25.5214 -6.0562 -39.9973 5.9257 14.3560 44.6830 5.7902 6.2826 -47.8563 0.0777 1.7983 4.9485 0.0000 0.0000 0.0000 12.3249 12.8135 -57.7426 -10.5907 -17.7289 61.4450 -0.4643 -14.2911 -24.7701 -0.2051 -2.9159 8.0447 -2.1406 -1.7940 -2.4323 1.4503 -1.9625 -6.1702 2.7200 -0.6652 -4.8880 2.0682 0.3440 -16.0764 -3.3181 3.9346 34.4686 -0.8139 2.4292 14.7179 0.0000 -0.0000 0.0000 -77.1621 -6.4412 79.9462 36.6316 -45.9426 -15.9747 -0.0000 0.0000 -8.7932 -19.1161 13.2883 -4.5549 -7.1250 0.0000 -0.0000 -39.1186 39.8778 6.0613 0.0000 -0.0000 0.0000 75.9543 -4.9657 54.5463 -54.1998 54.5550 -29.5630 0.0000 -0.0000 -39.2492 6.2129 6.9646 0.7563 7.1250 -0.0000 -0.0000 23.6482 -22.9841 13.7104
